<svg viewBox="0 0 95 36" xmlns="http://www.w3.org/2000/svg">
<path d="M0.832 35V27.128H8.704V35H0.832Z" fill="black"/>
<path d="M22.3949 35V20.936L11.0669 0.679998H20.6189L24.5069 8.936L26.5709 13.88H26.6669C27.3069 12.152 27.9949 10.504 28.7309 8.936L32.5709 0.679998H42.1229L30.7949 20.936V35H22.3949ZM45.2406 35V0.679998H66.7446V7.88H53.6406V14.12H64.1046V21.32H53.6406V27.8H67.4166V35H45.2406ZM70.2168 30.68L74.6328 24.296C75.7208 25.256 77.0168 26.088 78.5208 26.792C80.0248 27.496 81.4808 27.848 82.8888 27.848C84.0088 27.848 84.8728 27.624 85.4808 27.176C86.1208 26.728 86.4408 26.152 86.4408 25.448C86.4408 24.712 86.0568 24.04 85.2888 23.432C84.5528 22.792 83.6248 22.264 82.5048 21.848C81.3848 21.432 80.1688 20.904 78.8568 20.264C77.5448 19.592 76.3288 18.888 75.2088 18.152C74.0888 17.416 73.1448 16.408 72.3768 15.128C71.6408 13.816 71.2728 12.312 71.2728 10.616C71.2728 7.48 72.4248 4.952 74.7288 3.032C77.0648 1.08 80.0568 0.103997 83.7048 0.103997C87.9608 0.103997 91.5448 1.4 94.4568 3.992L90.9048 10.856C89.9128 9.992 88.7288 9.272 87.3528 8.696C85.9768 8.12 84.6328 7.832 83.3208 7.832C82.1048 7.832 81.1928 8.056 80.5848 8.504C79.9768 8.952 79.6728 9.544 79.6728 10.28C79.6728 11.016 80.0408 11.688 80.7768 12.296C81.5448 12.904 82.4888 13.416 83.6088 13.832C84.7288 14.216 85.9448 14.728 87.2568 15.368C88.5688 15.976 89.7848 16.648 90.9048 17.384C92.0248 18.088 92.9528 19.096 93.6888 20.408C94.4568 21.688 94.8408 23.176 94.8408 24.872C94.8408 27.912 93.7528 30.456 91.5768 32.504C89.4328 34.552 86.4568 35.576 82.6488 35.576C80.3448 35.576 78.0888 35.16 75.8808 34.328C73.7048 33.496 71.8168 32.28 70.2168 30.68Z" fill="#E4002B"/>
</svg>
